<svg xmlns="http://www.w3.org/2000/svg" xmlns:xlink="http://www.w3.org/1999/xlink" width="1366" zoomAndPan="magnify" viewBox="0 0 1024.5 576" height="768" preserveAspectRatio="xMidYMid meet" version="1.0"><defs><clipPath id="5439b2b27f"><path d="M 196 12 L 500 12 L 500 565.890625 L 196 565.890625 Z M 196 12 " clip-rule="nonzero"/></clipPath></defs><g clip-path="url(#5439b2b27f)"><path fill="#000000" d="M 485.792969 14.617188 C 484.765625 14.15625 483.707031 13.773438 482.621094 13.46875 C 481.539062 13.164062 480.4375 12.933594 479.320312 12.789062 C 478.203125 12.640625 477.078125 12.574219 475.953125 12.589844 C 474.824219 12.601562 473.707031 12.699219 472.59375 12.875 C 471.480469 13.050781 470.382812 13.304688 469.308594 13.636719 C 468.230469 13.972656 467.183594 14.378906 466.164062 14.863281 C 465.148438 15.351562 464.171875 15.90625 463.234375 16.53125 C 462.296875 17.15625 461.40625 17.847656 460.570312 18.597656 L 296.605469 165.769531 L 220.042969 165.769531 C 219.277344 165.773438 218.515625 165.820312 217.753906 165.902344 C 216.992188 165.980469 216.234375 166.101562 215.484375 166.253906 C 214.734375 166.410156 213.992188 166.601562 213.261719 166.828125 C 212.527344 167.054688 211.808594 167.316406 211.101562 167.613281 C 210.394531 167.910156 209.707031 168.238281 209.03125 168.601562 C 208.355469 168.964844 207.703125 169.363281 207.066406 169.789062 C 206.429688 170.214844 205.816406 170.671875 205.222656 171.160156 C 204.632812 171.648438 204.066406 172.160156 203.523438 172.703125 C 202.980469 173.246094 202.46875 173.8125 201.980469 174.402344 C 201.492188 174.996094 201.035156 175.609375 200.609375 176.246094 C 200.183594 176.882812 199.785156 177.535156 199.421875 178.210938 C 199.058594 178.886719 198.730469 179.578125 198.433594 180.285156 C 198.136719 180.988281 197.875 181.710938 197.648438 182.441406 C 197.421875 183.171875 197.230469 183.914062 197.078125 184.664062 C 196.921875 185.414062 196.804688 186.171875 196.722656 186.933594 C 196.640625 187.695312 196.597656 188.460938 196.589844 189.226562 L 196.589844 388.402344 C 196.566406 389.1875 196.585938 389.972656 196.640625 390.753906 C 196.695312 391.535156 196.792969 392.316406 196.925781 393.089844 C 197.058594 393.863281 197.230469 394.628906 197.4375 395.382812 C 197.648438 396.140625 197.894531 396.886719 198.175781 397.617188 C 198.460938 398.347656 198.78125 399.066406 199.132812 399.765625 C 199.488281 400.464844 199.878906 401.148438 200.300781 401.808594 C 200.722656 402.46875 201.175781 403.109375 201.664062 403.726562 C 202.148438 404.34375 202.664062 404.933594 203.207031 405.5 C 203.753906 406.0625 204.324219 406.601562 204.921875 407.109375 C 205.519531 407.617188 206.140625 408.09375 206.789062 408.542969 C 207.433594 408.988281 208.097656 409.402344 208.785156 409.78125 C 209.472656 410.164062 210.175781 410.507812 210.898438 410.816406 C 211.617188 411.128906 212.351562 411.402344 213.101562 411.640625 C 213.847656 411.875 214.605469 412.078125 215.375 412.238281 C 216.144531 412.398438 216.917969 412.523438 217.695312 412.609375 C 218.476562 412.691406 219.261719 412.738281 220.042969 412.746094 L 297.492188 412.746094 L 460.570312 559.695312 C 461.605469 560.667969 462.730469 561.53125 463.933594 562.285156 C 465.140625 563.042969 466.40625 563.675781 467.730469 564.1875 C 469.058594 564.699219 470.421875 565.082031 471.824219 565.332031 C 473.222656 565.578125 474.636719 565.691406 476.058594 565.667969 C 479.441406 565.667969 482.683594 565.003906 485.792969 563.675781 C 486.851562 563.207031 487.871094 562.664062 488.847656 562.042969 C 489.828125 561.421875 490.753906 560.734375 491.628906 559.976562 C 492.507812 559.21875 493.320312 558.402344 494.078125 557.523438 C 494.832031 556.644531 495.515625 555.714844 496.132812 554.734375 C 496.75 553.753906 497.292969 552.734375 497.757812 551.675781 C 498.226562 550.613281 498.613281 549.527344 498.917969 548.410156 C 499.222656 547.292969 499.441406 546.15625 499.578125 545.007812 C 499.714844 543.859375 499.769531 542.703125 499.734375 541.546875 L 499.734375 36.082031 C 499.734375 34.953125 499.65625 33.828125 499.496094 32.710938 C 499.332031 31.589844 499.09375 30.488281 498.773438 29.40625 C 498.453125 28.324219 498.054688 27.269531 497.582031 26.242188 C 497.109375 25.214844 496.566406 24.226562 495.949219 23.28125 C 495.335938 22.332031 494.652344 21.433594 493.910156 20.585938 C 493.164062 19.734375 492.359375 18.945312 491.5 18.210938 C 490.640625 17.476562 489.734375 16.808594 488.777344 16.207031 C 487.820312 15.605469 486.828125 15.074219 485.792969 14.617188 Z M 476.722656 542.429688 L 474.507812 542.429688 L 312.316406 396.589844 C 310.160156 394.648438 307.730469 393.164062 305.019531 392.132812 C 302.308594 391.101562 299.503906 390.597656 296.605469 390.617188 L 220.042969 390.617188 L 218.71875 389.289062 L 220.042969 187.898438 L 296.605469 187.898438 C 299.503906 187.917969 302.308594 187.414062 305.019531 186.382812 C 307.730469 185.351562 310.160156 183.863281 312.316406 181.921875 L 475.394531 35.199219 L 467.871094 27.007812 L 477.605469 36.082031 Z M 476.722656 542.429688 " fill-opacity="1" fill-rule="nonzero"/></g><path fill="#000000" d="M 716.582031 84.769531 C 709.058594 77.46875 701.316406 70.605469 692.683594 62.640625 C 692.113281 62.183594 691.507812 61.785156 690.859375 61.445312 C 690.210938 61.105469 689.539062 60.832031 688.835938 60.621094 C 688.136719 60.414062 687.421875 60.277344 686.695312 60.207031 C 685.96875 60.136719 685.242188 60.136719 684.515625 60.210938 C 683.785156 60.28125 683.074219 60.421875 682.375 60.632812 C 681.671875 60.84375 681 61.117188 680.355469 61.460938 C 679.707031 61.800781 679.101562 62.199219 678.53125 62.660156 C 677.964844 63.117188 677.445312 63.628906 676.976562 64.1875 C 676.511719 64.75 676.109375 65.351562 675.769531 65.996094 C 675.429688 66.636719 675.15625 67.308594 674.949219 68.003906 C 674.742188 68.703125 674.609375 69.414062 674.546875 70.140625 C 674.484375 70.863281 674.492188 71.585938 674.574219 72.308594 C 674.65625 73.03125 674.8125 73.738281 675.035156 74.429688 C 675.261719 75.125 675.550781 75.785156 675.910156 76.417969 C 676.269531 77.050781 676.6875 77.644531 677.164062 78.191406 C 677.640625 78.742188 678.167969 79.238281 678.746094 79.679688 C 686.933594 86.320312 694.011719 92.957031 700.871094 99.597656 C 703.957031 102.691406 706.960938 105.855469 709.890625 109.097656 C 712.820312 112.335938 715.664062 115.644531 718.433594 119.023438 C 721.199219 122.40625 723.878906 125.851562 726.476562 129.359375 C 729.074219 132.871094 731.585938 136.445312 734.007812 140.078125 C 736.429688 143.710938 738.761719 147.402344 741.003906 151.152344 C 743.242188 154.898438 745.390625 158.699219 747.445312 162.554688 C 749.503906 166.40625 751.460938 170.308594 753.324219 174.257812 C 755.191406 178.207031 756.957031 182.203125 758.625 186.238281 C 760.292969 190.273438 761.859375 194.347656 763.328125 198.460938 C 764.796875 202.574219 766.164062 206.722656 767.429688 210.902344 C 768.695312 215.082031 769.859375 219.289062 770.917969 223.527344 C 771.976562 227.761719 772.933594 232.023438 773.78125 236.308594 C 774.632812 240.589844 775.378906 244.894531 776.015625 249.214844 C 776.65625 253.535156 777.191406 257.867188 777.617188 262.214844 C 778.046875 266.5625 778.367188 270.914062 778.578125 275.277344 C 778.792969 279.640625 778.898438 284.003906 778.898438 288.371094 C 778.898438 292.738281 778.792969 297.105469 778.578125 301.464844 C 778.367188 305.828125 778.046875 310.183594 777.617188 314.53125 C 777.191406 318.875 776.65625 323.210938 776.015625 327.53125 C 775.378906 331.851562 774.632812 336.152344 773.78125 340.4375 C 772.933594 344.71875 771.976562 348.980469 770.917969 353.21875 C 769.859375 357.453125 768.695312 361.664062 767.429688 365.84375 C 766.164062 370.023438 764.796875 374.167969 763.328125 378.28125 C 761.859375 382.394531 760.292969 386.46875 758.625 390.507812 C 756.957031 394.542969 755.191406 398.535156 753.324219 402.484375 C 751.460938 406.433594 749.503906 410.335938 747.445312 414.191406 C 745.390625 418.042969 743.242188 421.84375 741.003906 425.59375 C 738.761719 429.339844 736.429688 433.03125 734.007812 436.664062 C 731.585938 440.300781 729.074219 443.871094 726.476562 447.382812 C 723.878906 450.894531 721.199219 454.339844 718.433594 457.71875 C 715.664062 461.097656 712.820312 464.40625 709.890625 467.648438 C 706.960938 470.886719 703.957031 474.054688 700.871094 477.144531 C 694.011719 483.785156 686.933594 490.425781 678.746094 497.0625 C 678.167969 497.507812 677.640625 498.003906 677.164062 498.550781 C 676.6875 499.101562 676.269531 499.691406 675.910156 500.324219 C 675.554688 500.957031 675.261719 501.621094 675.035156 502.3125 C 674.8125 503.003906 674.65625 503.710938 674.574219 504.433594 C 674.492188 505.15625 674.484375 505.878906 674.546875 506.605469 C 674.609375 507.328125 674.742188 508.039062 674.949219 508.738281 C 675.15625 509.4375 675.429688 510.105469 675.769531 510.75 C 676.109375 511.390625 676.511719 511.992188 676.976562 512.554688 C 678.050781 513.820312 679.339844 514.804688 680.851562 515.5 C 682.359375 516.195312 683.941406 516.542969 685.605469 516.539062 C 686.890625 516.558594 688.140625 516.355469 689.355469 515.9375 C 690.574219 515.519531 691.683594 514.910156 692.683594 514.105469 C 701.316406 507.023438 709.058594 500.160156 716.582031 491.972656 C 719.890625 488.628906 723.117188 485.207031 726.257812 481.703125 C 729.402344 478.199219 732.457031 474.625 735.425781 470.972656 C 738.394531 467.320312 741.269531 463.601562 744.054688 459.808594 C 746.84375 456.019531 749.535156 452.160156 752.132812 448.238281 C 754.730469 444.316406 757.234375 440.332031 759.636719 436.285156 C 762.042969 432.242188 764.34375 428.140625 766.550781 423.984375 C 768.753906 419.828125 770.855469 415.617188 772.855469 411.359375 C 774.851562 407.097656 776.746094 402.792969 778.535156 398.441406 C 780.324219 394.089844 782.007812 389.695312 783.582031 385.261719 C 785.15625 380.828125 786.621094 376.355469 787.980469 371.851562 C 789.335938 367.347656 790.582031 362.808594 791.71875 358.242188 C 792.851562 353.675781 793.878906 349.085938 794.789062 344.46875 C 795.699219 339.851562 796.5 335.21875 797.183594 330.5625 C 797.871094 325.90625 798.441406 321.238281 798.902344 316.554688 C 799.359375 311.871094 799.703125 307.179688 799.933594 302.480469 C 800.160156 297.78125 800.277344 293.078125 800.277344 288.371094 C 800.277344 283.667969 800.160156 278.964844 799.933594 274.265625 C 799.703125 269.5625 799.359375 264.871094 798.902344 260.1875 C 798.441406 255.507812 797.871094 250.835938 797.183594 246.179688 C 796.5 241.527344 795.699219 236.890625 794.789062 232.273438 C 793.878906 227.65625 792.851562 223.066406 791.71875 218.5 C 790.582031 213.933594 789.335938 209.398438 787.980469 204.890625 C 786.621094 200.386719 785.15625 195.917969 783.582031 191.484375 C 782.007812 187.046875 780.324219 182.65625 778.535156 178.304688 C 776.746094 173.953125 774.851562 169.644531 772.855469 165.386719 C 770.855469 161.125 768.753906 156.917969 766.550781 152.761719 C 764.34375 148.601562 762.042969 144.503906 759.636719 140.457031 C 757.234375 136.414062 754.730469 132.429688 752.132812 128.507812 C 749.535156 124.582031 746.84375 120.726562 744.054688 116.933594 C 741.269531 113.144531 738.394531 109.421875 735.425781 105.769531 C 732.457031 102.121094 729.402344 98.542969 726.257812 95.039062 C 723.117188 91.539062 719.890625 88.113281 716.582031 84.769531 Z M 716.582031 84.769531 " fill-opacity="1" fill-rule="nonzero"/><path fill="#000000" d="M 657.503906 143.859375 C 649.839844 135.726562 641.503906 128.347656 632.5 121.726562 C 631.914062 121.304688 631.292969 120.945312 630.632812 120.648438 C 629.976562 120.351562 629.296875 120.121094 628.59375 119.960938 C 627.890625 119.800781 627.175781 119.707031 626.453125 119.6875 C 625.734375 119.667969 625.015625 119.722656 624.304688 119.84375 C 623.59375 119.96875 622.902344 120.160156 622.230469 120.421875 C 621.558594 120.6875 620.917969 121.011719 620.3125 121.402344 C 619.703125 121.789062 619.140625 122.238281 618.621094 122.738281 C 618.101562 123.242188 617.640625 123.789062 617.230469 124.382812 C 616.816406 124.96875 616.464844 125.585938 616.171875 126.238281 C 615.878906 126.890625 615.652344 127.566406 615.488281 128.265625 C 615.328125 128.960938 615.234375 129.667969 615.207031 130.382812 C 615.183594 131.097656 615.226562 131.808594 615.339844 132.515625 C 615.449219 133.222656 615.628906 133.910156 615.875 134.582031 C 616.125 135.253906 616.433594 135.894531 616.800781 136.507812 C 617.171875 137.121094 617.601562 137.691406 618.082031 138.21875 C 618.5625 138.75 619.089844 139.226562 619.664062 139.652344 C 627.628906 145.316406 635.003906 151.660156 641.792969 158.6875 C 643.917969 160.808594 645.988281 162.980469 648.003906 165.203125 C 650.023438 167.425781 651.984375 169.695312 653.890625 172.015625 C 655.796875 174.335938 657.644531 176.699219 659.433594 179.109375 C 661.226562 181.519531 662.953125 183.972656 664.625 186.46875 C 666.292969 188.960938 667.902344 191.496094 669.445312 194.070312 C 670.992188 196.644531 672.472656 199.257812 673.886719 201.902344 C 675.304688 204.550781 676.65625 207.230469 677.9375 209.945312 C 679.222656 212.65625 680.441406 215.402344 681.589844 218.171875 C 682.742188 220.945312 683.824219 223.746094 684.835938 226.574219 C 685.847656 229.398438 686.789062 232.25 687.660156 235.121094 C 688.535156 237.996094 689.335938 240.886719 690.066406 243.800781 C 690.796875 246.710938 691.453125 249.640625 692.039062 252.582031 C 692.625 255.527344 693.140625 258.484375 693.582031 261.453125 C 694.023438 264.425781 694.390625 267.402344 694.683594 270.390625 C 694.980469 273.378906 695.199219 276.371094 695.347656 279.371094 C 695.496094 282.371094 695.570312 285.371094 695.570312 288.371094 C 695.570312 291.375 695.496094 294.375 695.347656 297.375 C 695.199219 300.371094 694.980469 303.363281 694.683594 306.351562 C 694.390625 309.339844 694.023438 312.320312 693.582031 315.289062 C 693.140625 318.257812 692.625 321.214844 692.039062 324.160156 C 691.453125 327.105469 690.796875 330.03125 690.066406 332.945312 C 689.335938 335.855469 688.535156 338.75 687.660156 341.621094 C 686.789062 344.496094 685.847656 347.34375 684.835938 350.171875 C 683.824219 352.996094 682.742188 355.796875 681.589844 358.570312 C 680.441406 361.34375 679.222656 364.085938 677.9375 366.800781 C 676.65625 369.511719 675.304688 372.195312 673.886719 374.839844 C 672.472656 377.488281 670.992188 380.097656 669.445312 382.671875 C 667.902344 385.246094 666.292969 387.78125 664.625 390.277344 C 662.953125 392.769531 661.226562 395.222656 659.433594 397.632812 C 657.644531 400.042969 655.796875 402.410156 653.890625 404.726562 C 651.984375 407.046875 650.023438 409.320312 648.003906 411.542969 C 645.988281 413.765625 643.917969 415.9375 641.792969 418.058594 C 635.003906 425.085938 627.628906 431.429688 619.664062 437.089844 C 619.089844 437.515625 618.5625 437.996094 618.082031 438.523438 C 617.601562 439.054688 617.171875 439.625 616.800781 440.234375 C 616.433594 440.847656 616.125 441.488281 615.875 442.160156 C 615.628906 442.832031 615.449219 443.523438 615.339844 444.230469 C 615.226562 444.9375 615.183594 445.648438 615.207031 446.363281 C 615.234375 447.078125 615.328125 447.78125 615.488281 448.480469 C 615.652344 449.175781 615.878906 449.851562 616.171875 450.503906 C 616.464844 451.15625 616.816406 451.777344 617.230469 452.359375 C 617.714844 453.09375 618.28125 453.761719 618.929688 454.355469 C 619.574219 454.953125 620.285156 455.464844 621.054688 455.886719 C 621.824219 456.3125 622.636719 456.636719 623.488281 456.863281 C 624.335938 457.089844 625.203125 457.210938 626.082031 457.230469 C 627.246094 457.246094 628.382812 457.066406 629.484375 456.6875 C 630.585938 456.304688 631.589844 455.75 632.5 455.015625 C 641.503906 448.394531 649.839844 441.019531 657.503906 432.886719 C 659.84375 430.507812 662.125 428.070312 664.347656 425.582031 C 666.570312 423.09375 668.730469 420.550781 670.828125 417.957031 C 672.925781 415.359375 674.960938 412.714844 676.929688 410.023438 C 678.902344 407.328125 680.804688 404.589844 682.640625 401.804688 C 684.480469 399.019531 686.246094 396.1875 687.949219 393.316406 C 689.648438 390.445312 691.277344 387.53125 692.835938 384.582031 C 694.390625 381.628906 695.878906 378.644531 697.292969 375.621094 C 698.703125 372.597656 700.042969 369.539062 701.308594 366.453125 C 702.570312 363.363281 703.761719 360.246094 704.875 357.101562 C 705.988281 353.953125 707.023438 350.78125 707.980469 347.585938 C 708.941406 344.390625 709.820312 341.171875 710.625 337.933594 C 711.425781 334.691406 712.152344 331.4375 712.796875 328.160156 C 713.441406 324.886719 714.003906 321.597656 714.488281 318.296875 C 714.972656 314.996094 715.378906 311.683594 715.703125 308.359375 C 716.023438 305.039062 716.269531 301.710938 716.429688 298.378906 C 716.59375 295.042969 716.671875 291.710938 716.671875 288.371094 C 716.671875 285.035156 716.59375 281.699219 716.429688 278.367188 C 716.269531 275.03125 716.023438 271.703125 715.703125 268.382812 C 715.378906 265.0625 714.972656 261.75 714.488281 258.449219 C 714.003906 255.144531 713.441406 251.855469 712.796875 248.582031 C 712.152344 245.308594 711.425781 242.050781 710.625 238.8125 C 709.820312 235.574219 708.941406 232.355469 707.980469 229.15625 C 707.023438 225.960938 705.988281 222.789062 704.875 219.644531 C 703.761719 216.496094 702.570312 213.378906 701.308594 210.292969 C 700.042969 207.203125 698.703125 204.148438 697.292969 201.125 C 695.878906 198.101562 694.390625 195.113281 692.835938 192.160156 C 691.277344 189.210938 689.648438 186.300781 687.949219 183.425781 C 686.246094 180.554688 684.480469 177.726562 682.640625 174.941406 C 680.804688 172.152344 678.902344 169.414062 676.929688 166.71875 C 674.960938 164.027344 672.925781 161.382812 670.828125 158.789062 C 668.730469 156.195312 666.570312 153.652344 664.347656 151.160156 C 662.125 148.671875 659.84375 146.238281 657.503906 143.859375 Z M 657.503906 143.859375 " fill-opacity="1" fill-rule="nonzero"/><path fill="#000000" d="M 598.644531 202.726562 C 590.421875 194.527344 581.199219 187.667969 570.984375 182.144531 C 570.34375 181.808594 569.675781 181.535156 568.980469 181.328125 C 568.285156 181.121094 567.578125 180.984375 566.855469 180.910156 C 566.136719 180.839844 565.414062 180.839844 564.691406 180.90625 C 563.96875 180.976562 563.261719 181.113281 562.566406 181.316406 C 561.871094 181.519531 561.203125 181.789062 560.558594 182.125 C 559.914062 182.457031 559.308594 182.847656 558.742188 183.300781 C 558.171875 183.75 557.652344 184.25 557.183594 184.800781 C 556.710938 185.351562 556.296875 185.941406 555.9375 186.570312 C 555.589844 187.214844 555.3125 187.890625 555.101562 188.589844 C 554.886719 189.292969 554.746094 190.007812 554.675781 190.738281 C 554.605469 191.464844 554.605469 192.195312 554.679688 192.921875 C 554.753906 193.652344 554.898438 194.367188 555.117188 195.066406 C 555.332031 195.765625 555.617188 196.4375 555.964844 197.082031 C 556.316406 197.726562 556.722656 198.328125 557.195312 198.890625 C 557.664062 199.453125 558.183594 199.964844 558.753906 200.425781 C 559.324219 200.882812 559.933594 201.28125 560.585938 201.621094 C 568.71875 206.230469 576.09375 211.835938 582.710938 218.4375 C 583.867188 219.601562 584.992188 220.789062 586.085938 222.007812 C 587.183594 223.222656 588.25 224.464844 589.285156 225.734375 C 590.320312 227.003906 591.324219 228.296875 592.292969 229.613281 C 593.265625 230.933594 594.207031 232.273438 595.113281 233.636719 C 596.019531 235 596.890625 236.386719 597.730469 237.792969 C 598.570312 239.199219 599.371094 240.625 600.140625 242.070312 C 600.910156 243.515625 601.644531 244.980469 602.339844 246.460938 C 603.039062 247.945312 603.699219 249.441406 604.324219 250.957031 C 604.949219 252.46875 605.535156 254 606.082031 255.539062 C 606.632812 257.082031 607.144531 258.640625 607.617188 260.207031 C 608.089844 261.773438 608.527344 263.351562 608.921875 264.941406 C 609.320312 266.53125 609.675781 268.128906 609.996094 269.734375 C 610.3125 271.339844 610.589844 272.953125 610.832031 274.574219 C 611.070312 276.195312 611.269531 277.820312 611.429688 279.449219 C 611.589844 281.078125 611.710938 282.710938 611.789062 284.347656 C 611.867188 285.984375 611.910156 287.621094 611.910156 289.257812 C 611.910156 290.894531 611.867188 292.53125 611.789062 294.167969 C 611.710938 295.804688 611.589844 297.4375 611.429688 299.066406 C 611.269531 300.695312 611.070312 302.320312 610.832031 303.941406 C 610.589844 305.558594 610.3125 307.171875 609.996094 308.78125 C 609.675781 310.386719 609.320312 311.984375 608.921875 313.574219 C 608.527344 315.160156 608.089844 316.738281 607.617188 318.308594 C 607.144531 319.875 606.632812 321.429688 606.082031 322.972656 C 605.535156 324.515625 604.949219 326.042969 604.324219 327.558594 C 603.699219 329.074219 603.039062 330.570312 602.339844 332.050781 C 601.644531 333.535156 600.910156 334.996094 600.140625 336.441406 C 599.371094 337.890625 598.570312 339.316406 597.730469 340.722656 C 596.890625 342.128906 596.019531 343.511719 595.113281 344.875 C 594.207031 346.242188 593.265625 347.582031 592.292969 348.898438 C 591.324219 350.21875 590.320312 351.511719 589.285156 352.78125 C 588.25 354.046875 587.183594 355.289062 586.085938 356.507812 C 584.992188 357.722656 583.867188 358.914062 582.710938 360.074219 C 576.09375 366.679688 568.71875 372.285156 560.585938 376.894531 C 559.933594 377.230469 559.324219 377.632812 558.753906 378.089844 C 558.183594 378.550781 557.664062 379.058594 557.195312 379.621094 C 556.722656 380.183594 556.316406 380.789062 555.964844 381.433594 C 555.617188 382.074219 555.332031 382.746094 555.117188 383.449219 C 554.898438 384.148438 554.753906 384.863281 554.679688 385.589844 C 554.605469 386.320312 554.605469 387.046875 554.675781 387.777344 C 554.746094 388.507812 554.886719 389.222656 555.101562 389.921875 C 555.3125 390.625 555.589844 391.296875 555.9375 391.941406 C 556.441406 392.792969 557.042969 393.570312 557.742188 394.269531 C 558.441406 394.96875 559.214844 395.570312 560.066406 396.070312 C 560.917969 396.574219 561.816406 396.964844 562.769531 397.238281 C 563.71875 397.515625 564.6875 397.667969 565.675781 397.699219 C 567.5625 397.726562 569.332031 397.285156 570.984375 396.371094 C 581.199219 390.847656 590.421875 383.988281 598.644531 375.789062 C 600.054688 374.367188 601.425781 372.914062 602.765625 371.425781 C 604.101562 369.941406 605.40625 368.421875 606.667969 366.871094 C 607.933594 365.320312 609.160156 363.738281 610.34375 362.128906 C 611.53125 360.519531 612.679688 358.878906 613.785156 357.214844 C 614.890625 355.546875 615.957031 353.855469 616.980469 352.136719 C 618.007812 350.417969 618.988281 348.675781 619.925781 346.90625 C 620.867188 345.140625 621.761719 343.351562 622.613281 341.542969 C 623.464844 339.730469 624.269531 337.902344 625.03125 336.050781 C 625.792969 334.203125 626.511719 332.335938 627.183594 330.449219 C 627.851562 328.566406 628.476562 326.664062 629.054688 324.75 C 629.632812 322.835938 630.164062 320.90625 630.648438 318.964844 C 631.132812 317.023438 631.570312 315.070312 631.957031 313.109375 C 632.34375 311.144531 632.6875 309.175781 632.976562 307.195312 C 633.269531 305.214844 633.511719 303.230469 633.707031 301.238281 C 633.902344 299.25 634.050781 297.253906 634.148438 295.253906 C 634.246094 293.257812 634.292969 291.257812 634.292969 289.257812 C 634.292969 287.257812 634.246094 285.257812 634.148438 283.257812 C 634.050781 281.261719 633.902344 279.265625 633.707031 277.273438 C 633.511719 275.28125 633.269531 273.296875 632.976562 271.320312 C 632.6875 269.339844 632.34375 267.367188 631.957031 265.40625 C 631.570312 263.441406 631.132812 261.492188 630.648438 259.550781 C 630.164062 257.609375 629.632812 255.679688 629.054688 253.765625 C 628.476562 251.847656 627.851562 249.949219 627.183594 248.066406 C 626.511719 246.179688 625.792969 244.3125 625.03125 242.460938 C 624.269531 240.613281 623.464844 238.78125 622.613281 236.972656 C 621.761719 235.160156 620.867188 233.375 619.925781 231.605469 C 618.988281 229.839844 618.007812 228.097656 616.980469 226.378906 C 615.957031 224.660156 614.890625 222.96875 613.785156 221.300781 C 612.679688 219.632812 611.53125 217.996094 610.34375 216.386719 C 609.160156 214.773438 607.933594 213.195312 606.667969 211.644531 C 605.40625 210.09375 604.101562 208.574219 602.765625 207.085938 C 601.425781 205.601562 600.054688 204.144531 598.644531 202.726562 Z M 598.644531 202.726562 " fill-opacity="1" fill-rule="nonzero"/></svg>